<?xml version="1.0" encoding="utf-8"?>
<!-- Generator: Adobe Illustrator 16.0.0, SVG Export Plug-In . SVG Version: 6.00 Build 0)  -->
<!DOCTYPE svg PUBLIC "-//W3C//DTD SVG 1.1//EN" "http://www.w3.org/Graphics/SVG/1.1/DTD/svg11.dtd">
<svg version="1.1" id="Layer_1" xmlns="http://www.w3.org/2000/svg" xmlns:xlink="http://www.w3.org/1999/xlink" x="0px" y="0px"
	 width="679.252px" height="635.476px" viewBox="0 0 679.252 635.476" enable-background="new 0 0 679.252 635.476"
	 xml:space="preserve">
<g>
	<circle fill="#F1B175" cx="339.548" cy="367.374" r="267.67"/>
	<path fill="#ED1C24" d="M467.45,419.44c0,71.05-57.598,128.647-128.647,128.647c-71.052,0-128.649-57.598-128.649-128.647
		s57.596,15.515,128.649,15.515C409.853,434.955,467.45,348.391,467.45,419.44z"/>
	<path opacity="0.1" fill="#3F2C20" d="M467.45,429.229c0,71.05-57.598,128.647-128.647,128.647
		c-71.052,0-128.649-57.598-128.649-128.647s57.596,15.515,128.649,15.515C409.853,444.744,467.45,358.18,467.45,429.229z"/>
	<g>
		<path fill="#EF7475" d="M380.886,412.908c-37.881-13.255-103.502,45.706-127.482,102.744c0,0,6.439,13.561,46.423,26.424
			c64.158,20.639,115.023-18.536,115.023-18.536C425.249,476.798,418.766,426.165,380.886,412.908z"/>
		<path fill="#A03535" d="M367.734,440.355c0,0-0.474,1.411-1.304,3.88c-0.865,2.455-2.032,5.987-3.561,10.179
			c-1.534,4.188-3.247,9.104-5.224,14.317c-1.973,5.214-4.079,10.777-6.182,16.338c-2.185,5.531-4.37,11.062-6.419,16.247
			c-2.041,5.188-4.086,9.976-5.768,14.106c-1.688,4.129-3.205,7.528-4.215,9.927c-1.048,2.383-1.648,3.746-1.648,3.746
			s0.474-1.411,1.301-3.88c0.867-2.455,2.03-5.99,3.561-10.181c1.536-4.187,3.243-9.104,5.224-14.315
			c1.974-5.214,4.079-10.777,6.186-16.338c2.185-5.531,4.369-11.061,6.418-16.247c2.045-5.187,4.085-9.976,5.769-14.106
			c1.688-4.128,3.204-7.528,4.215-9.926C367.136,441.719,367.734,440.355,367.734,440.355z"/>
	</g>
	<ellipse opacity="0.2" fill="#876242" cx="166.286" cy="356.992" rx="32.453" ry="13.363"/>
	<ellipse opacity="0.2" fill="#876242" cx="504.425" cy="356.992" rx="32.453" ry="13.363"/>
	<g opacity="0.3">
		<path fill="#3F2C20" d="M289.537,596.15c0,0,1.059-1.15,2.914-3.164c0.474-0.492,0.973-1.061,1.566-1.635
			c0.637-0.535,1.327-1.116,2.063-1.735c0.746-0.623,1.54-1.285,2.377-1.982c0.857-0.671,1.844-1.233,2.832-1.903
			c1.009-0.63,2.019-1.372,3.145-1.988c1.154-0.576,2.345-1.171,3.57-1.784c0.621-0.293,1.229-0.642,1.881-0.898
			c0.66-0.248,1.327-0.5,2.002-0.754c1.354-0.49,2.724-1.059,4.169-1.454c1.458-0.365,2.938-0.738,4.437-1.114
			c1.491-0.429,3.065-0.521,4.624-0.767l2.356-0.316c0.791-0.069,1.588-0.073,2.386-0.112c1.596-0.031,3.203-0.19,4.804-0.111
			c1.6,0.111,3.199,0.225,4.793,0.339c1.593,0.125,3.149,0.484,4.707,0.716c0.778,0.133,1.552,0.265,2.321,0.397
			c0.753,0.21,1.501,0.421,2.244,0.63c1.48,0.441,2.971,0.779,4.378,1.294c2.792,1.087,5.521,2.06,7.906,3.426
			c1.206,0.646,2.414,1.206,3.512,1.87c1.07,0.71,2.104,1.398,3.095,2.059c2.034,1.233,3.652,2.714,5.129,3.938
			c0.732,0.625,1.436,1.181,2.047,1.741c0.574,0.601,1.104,1.152,1.581,1.65c1.868,2.002,2.938,3.146,2.938,3.146
			s-1.249-0.936-3.438-2.574c-0.539-0.412-1.134-0.869-1.782-1.367c-0.686-0.441-1.43-0.919-2.222-1.43
			c-1.597-1.003-3.322-2.224-5.399-3.236c-1.014-0.538-2.069-1.1-3.163-1.682c-1.113-0.533-2.307-1.006-3.503-1.534
			c-2.364-1.145-5.047-1.854-7.726-2.806c-1.355-0.433-2.787-0.686-4.202-1.046c-0.712-0.167-1.428-0.335-2.146-0.507
			c-0.731-0.111-1.464-0.226-2.202-0.339c-1.477-0.194-2.949-0.521-4.451-0.613c-1.503-0.088-3.013-0.174-4.523-0.26
			c-1.508-0.099-3.02,0.038-4.526,0.043c-0.751,0.024-1.506,0.015-2.252,0.069l-2.222,0.271c-0.74,0.089-1.477,0.177-2.209,0.263
			c-0.736,0.065-1.467,0.15-2.176,0.326c-1.432,0.295-2.845,0.585-4.235,0.872c-1.389,0.304-2.692,0.822-4.018,1.177
			c-0.658,0.193-1.309,0.388-1.952,0.578c-0.641,0.197-1.236,0.49-1.846,0.727c-1.213,0.494-2.394,0.976-3.534,1.439
			c-1.137,0.482-2.163,1.094-3.191,1.605c-1.013,0.538-2.021,1.012-2.916,1.545c-0.88,0.563-1.715,1.097-2.5,1.598
			c-0.794,0.505-1.538,0.977-2.224,1.411c-0.671,0.474-1.253,0.964-1.797,1.376C290.78,595.203,289.537,596.15,289.537,596.15z"/>
	</g>
	<path opacity="0.5" fill="none" stroke="#3F2C20" stroke-miterlimit="10" d="M323.872,367.825
		c11.161,10.785,28.622,10.785,39.039,0"/>
	<path fill="#EF4524" d="M229.883,123.966c90.643-36.644,84.7-120.804,84.7-120.804s96.398,94.933,76.816,125.965
		C371.814,160.159,193.274,138.765,229.883,123.966z"/>
	<g>
		<path fill="#EF4524" d="M229.883,123.966c93.739-38.45,115.922-123.53,115.922-123.53s71.345,96.33,51.082,128.867
			C376.623,161.841,192.024,139.494,229.883,123.966z"/>
		<path fill="#B53126" d="M229.883,123.966l5.006-2.192c1.661-0.747,3.357-1.417,4.977-2.253c3.259-1.627,6.578-3.135,9.744-4.941
			l4.797-2.615l4.683-2.814l2.341-1.407c0.776-0.476,1.525-0.995,2.289-1.49l4.562-3.006c1.502-1.028,2.963-2.117,4.446-3.172
			c1.482-1.057,2.962-2.117,4.38-3.262l4.302-3.364l4.173-3.523c0.691-0.592,1.396-1.168,2.077-1.772l2.016-1.843
			c1.333-1.24,2.711-2.43,4.006-3.71l3.892-3.83c1.295-1.279,2.514-2.633,3.774-3.945l1.87-1.989l1.806-2.047
			c1.193-1.374,2.438-2.704,3.574-4.126l3.466-4.218l3.337-4.32c2.166-2.924,4.306-5.869,6.322-8.898
			c1.042-1.492,2.002-3.038,2.985-4.569c0.997-1.522,1.929-3.085,2.864-4.646c0.955-1.549,1.846-3.135,2.74-4.72
			c0.914-1.573,1.754-3.187,2.613-4.791c1.706-3.214,3.301-6.484,4.826-9.787c1.511-3.309,2.925-6.661,4.237-10.051
			c1.299-3.392,2.512-6.834,3.483-10.315l0.192-0.689l0.419,0.571c4.075,5.555,7.978,11.219,11.8,16.943
			c3.816,5.726,7.526,11.524,11.114,17.397c3.586,5.875,7.049,11.826,10.354,17.866c3.286,6.049,6.452,12.171,9.307,18.443
			c2.852,6.271,5.471,12.658,7.627,19.213c2.125,6.555,3.864,13.29,4.444,20.201c0.275,3.45,0.246,6.945-0.313,10.383
			c-0.613,3.415-1.76,6.812-3.796,9.675c-2.129,2.867-5.094,4.853-8.156,6.454c-3.089,1.584-6.354,2.767-9.664,3.743
			c-6.63,1.944-13.449,3.091-20.28,3.93c-6.839,0.823-13.713,1.286-20.589,1.537c-13.757,0.481-27.53,0.118-41.255-0.821
			c-13.722-0.967-27.416-2.479-40.96-4.905c-6.761-1.244-13.51-2.669-20.057-4.795c-1.631-0.543-3.252-1.126-4.825-1.826
			c-1.565-0.704-3.122-1.481-4.453-2.583c-0.639-0.561-1.277-1.209-1.515-2.053c-0.28-0.846,0.087-1.755,0.658-2.383
			C226.693,125.36,228.318,124.64,229.883,123.966z M229.883,123.966c-1.562,0.68-3.185,1.408-4.344,2.695
			c-0.566,0.629-0.924,1.528-0.645,2.362c0.238,0.832,0.874,1.475,1.512,2.029c1.329,1.092,2.886,1.862,4.451,2.559
			c1.573,0.692,3.193,1.269,4.826,1.804c6.548,2.098,13.298,3.496,20.06,4.712c13.545,2.371,27.238,3.827,40.953,4.739
			c13.718,0.884,27.481,1.192,41.214,0.657c6.865-0.277,13.723-0.767,20.538-1.615c6.807-0.863,13.596-2.035,20.164-3.989
			c3.277-0.981,6.504-2.166,9.53-3.733c2.996-1.574,5.886-3.557,7.868-6.253c1.955-2.77,3.05-6.052,3.636-9.386
			c0.533-3.356,0.551-6.788,0.266-10.186c-0.599-6.81-2.348-13.484-4.484-19.987c-2.168-6.504-4.8-12.851-7.664-19.085
			c-5.743-12.47-12.387-24.521-19.497-36.276c-3.559-5.877-7.239-11.681-11.027-17.414c-3.793-5.729-7.673-11.408-11.712-16.958
			l0.611-0.118c-1.002,3.534-2.228,6.967-3.547,10.374c-1.331,3.399-2.764,6.757-4.292,10.071c-1.542,3.307-3.156,6.581-4.879,9.796
			c-0.868,1.605-1.717,3.22-2.639,4.793c-0.902,1.585-1.803,3.171-2.766,4.721c-0.943,1.561-1.884,3.124-2.89,4.646
			c-0.991,1.531-1.96,3.076-3.011,4.568c-2.033,3.028-4.189,5.972-6.371,8.893l-3.361,4.316l-3.489,4.212
			c-1.144,1.421-2.396,2.749-3.597,4.121l-1.817,2.043l-1.881,1.985c-1.268,1.31-2.494,2.661-3.796,3.937l-3.913,3.821
			c-1.301,1.276-2.687,2.464-4.026,3.7l-2.025,1.837c-0.684,0.603-1.392,1.177-2.086,1.767l-4.192,3.511l-4.321,3.351
			c-1.423,1.14-2.909,2.195-4.397,3.248c-1.489,1.05-2.955,2.134-4.463,3.157l-4.577,2.99c-0.767,0.493-1.518,1.009-2.296,1.482
			l-2.349,1.398l-4.697,2.797l-4.81,2.597c-3.174,1.794-6.502,3.29-9.768,4.904c-1.623,0.83-3.322,1.494-4.986,2.234
			L229.883,123.966z"/>
	</g>
	<g>
		<path fill="#EF4524" d="M229.883,123.964C320.526,87.322,387.848,3.491,387.848,3.491s28.623,94.778,9.039,125.812
			S193.274,138.765,229.883,123.964z"/>
		<path fill="#B53126" d="M229.883,123.964l5.764-2.454l2.878-1.234l2.842-1.318c1.891-0.885,3.795-1.743,5.676-2.649l5.601-2.804
			c1.878-0.913,3.709-1.917,5.55-2.903c1.833-1,3.695-1.946,5.504-2.989c3.626-2.07,7.266-4.117,10.817-6.315
			c3.596-2.124,7.086-4.417,10.612-6.652c3.466-2.328,6.975-4.593,10.372-7.021c1.704-1.206,3.431-2.379,5.116-3.612l5.055-3.696
			c1.687-1.229,3.33-2.519,4.997-3.774c1.668-1.254,3.319-2.532,4.95-3.835c3.294-2.565,6.521-5.214,9.75-7.86
			c3.195-2.687,6.396-5.366,9.528-8.127c1.58-1.364,3.144-2.746,4.691-4.147c1.551-1.396,3.114-2.779,4.64-4.204
			c3.079-2.818,6.114-5.685,9.126-8.575c6.014-5.791,11.885-11.729,17.604-17.808c2.866-3.035,5.68-6.118,8.454-9.234
			c2.77-3.119,5.51-6.274,8.137-9.501l0.466-0.572l0.209,0.703c1.865,6.284,3.536,12.61,5.122,18.963
			c1.57,6.355,3.025,12.74,4.346,19.153c2.636,12.824,4.766,25.775,5.815,38.845c0.521,6.532,0.785,13.094,0.574,19.653
			c-0.237,6.548-0.868,13.137-2.635,19.494l-0.743,2.358c-0.128,0.391-0.236,0.79-0.382,1.175l-0.478,1.143
			c-0.322,0.76-0.629,1.527-0.965,2.281l-1.198,2.174c-0.75,1.483-1.854,2.797-3.091,3.911c-1.239,1.116-2.606,2.072-4.037,2.899
			c-5.774,3.266-12.21,4.969-18.609,6.307c-6.43,1.296-12.942,2.101-19.466,2.649c-6.526,0.545-13.07,0.829-19.614,0.936
			c-13.09,0.206-26.182-0.268-39.23-1.249c-13.046-1.001-26.065-2.479-38.948-4.783c-6.432-1.181-12.852-2.527-19.091-4.513
			c-1.557-0.503-3.097-1.06-4.602-1.703c-1.497-0.653-2.982-1.379-4.272-2.395c-0.623-0.516-1.248-1.108-1.52-1.896
			c-0.133-0.385-0.174-0.814-0.058-1.212c0.117-0.394,0.326-0.757,0.594-1.066C226.839,125.273,228.392,124.597,229.883,123.964z
			 M229.883,123.964c-1.488,0.639-3.039,1.323-4.135,2.553c-0.266,0.31-0.472,0.67-0.586,1.06c-0.114,0.394-0.071,0.816,0.062,1.197
			c0.271,0.777,0.894,1.364,1.516,1.875c1.289,1.006,2.774,1.726,4.271,2.372c1.505,0.637,3.046,1.186,4.603,1.683
			c6.241,1.959,12.662,3.28,19.094,4.435c12.885,2.251,25.903,3.678,38.944,4.628c13.044,0.93,26.128,1.352,39.2,1.095
			c6.535-0.132,13.068-0.441,19.577-1.011c6.507-0.572,12.997-1.401,19.389-2.716c6.358-1.352,12.748-3.081,18.386-6.302
			c2.768-1.643,5.373-3.697,6.847-6.583l1.162-2.126l0.937-2.24l0.464-1.122c0.142-0.379,0.247-0.772,0.372-1.158l0.723-2.323
			c1.717-6.271,2.319-12.81,2.53-19.315c0.184-6.518-0.104-13.048-0.649-19.551c-0.546-6.506-1.374-12.988-2.378-19.441
			c-0.989-6.456-2.139-12.89-3.432-19.294c-1.292-6.405-2.721-12.784-4.264-19.135c-1.558-6.345-3.204-12.677-5.038-18.942
			l0.675,0.131c-2.659,3.241-5.41,6.383-8.198,9.5c-2.792,3.111-5.622,6.188-8.503,9.215c-5.751,6.066-11.652,11.988-17.695,17.762
			c-3.026,2.881-6.075,5.74-9.169,8.549c-1.532,1.42-3.103,2.798-4.661,4.19c-1.553,1.397-3.125,2.774-4.711,4.134
			c-3.145,2.751-6.36,5.421-9.568,8.098c-3.242,2.636-6.481,5.275-9.789,7.829c-1.637,1.298-3.294,2.57-4.969,3.819
			c-1.673,1.251-3.322,2.534-5.016,3.758l-5.073,3.68c-1.691,1.227-3.424,2.394-5.134,3.594c-3.409,2.417-6.929,4.67-10.405,6.986
			c-3.537,2.223-7.039,4.504-10.645,6.615c-3.561,2.186-7.21,4.22-10.846,6.276c-1.814,1.036-3.681,1.976-5.518,2.968
			c-1.845,0.979-3.68,1.977-5.563,2.882l-5.613,2.783c-1.885,0.899-3.793,1.75-5.688,2.628l-2.847,1.307l-2.884,1.223
			L229.883,123.964z"/>
	</g>
	<g>
		<path fill="#EF4524" d="M252.449,136.188C362.911,108.188,403.738,17.194,403.738,17.194s27.486,87.143,10.609,113.887
			c-6.146,9.739-30.596,15.358-59.948,15.601C303.136,147.106,229.001,142.131,252.449,136.188z"/>
		<path fill="#B53126" d="M252.449,136.188c3.996-1.05,7.982-2.143,11.923-3.381c3.952-1.206,7.858-2.555,11.74-3.967
			c1.942-0.703,3.862-1.466,5.79-2.207c1.907-0.793,3.837-1.531,5.724-2.37c3.806-1.606,7.545-3.365,11.261-5.166
			c14.818-7.303,28.863-16.167,41.815-26.411c12.958-10.238,24.841-21.826,35.429-34.49c5.291-6.334,10.263-12.935,14.857-19.789
			c2.296-3.427,4.498-6.917,6.583-10.475c2.076-3.558,4.077-7.182,5.812-10.896l0.428-0.915l0.297,0.957
			c1.814,5.837,3.46,11.713,5.022,17.616c1.554,5.904,3.006,11.835,4.332,17.796c2.659,11.917,4.811,23.967,5.99,36.139
			c0.579,6.084,0.914,12.202,0.753,18.325c-0.192,6.106-0.779,12.28-2.708,18.148c-0.495,1.458-1.055,2.901-1.775,4.272
			c-0.336,0.703-0.741,1.343-1.158,2.028c-0.414,0.625-0.91,1.251-1.448,1.831c-2.146,2.285-4.849,3.883-7.598,5.235
			c-5.562,2.639-11.528,4.214-17.515,5.412c-12.013,2.337-24.267,3.051-36.465,3.036c-12.203,0.025-24.404-0.22-36.597-0.665
			c-12.192-0.456-24.38-1.096-36.54-2.102c-6.078-0.515-12.153-1.104-18.192-1.977c-3.014-0.454-6.036-0.937-8.973-1.771
			c-0.73-0.219-1.458-0.458-2.142-0.801c-0.336-0.176-0.678-0.369-0.925-0.667c-0.12-0.147-0.208-0.336-0.188-0.532
			c0.019-0.195,0.134-0.364,0.265-0.5c0.557-0.535,1.301-0.8,2.008-1.066C250.975,136.581,251.71,136.374,252.449,136.188z
			 M252.449,136.188c-0.738,0.189-1.472,0.399-2.19,0.655c-0.705,0.268-1.448,0.537-1.998,1.069c-0.129,0.136-0.24,0.301-0.258,0.49
			c-0.019,0.188,0.066,0.371,0.185,0.516c0.243,0.292,0.584,0.483,0.919,0.657c0.682,0.339,1.41,0.575,2.14,0.791
			c2.938,0.822,5.959,1.292,8.974,1.734c6.04,0.848,12.115,1.413,18.194,1.904c12.16,0.958,24.347,1.55,36.538,1.958
			c12.191,0.397,24.39,0.593,36.585,0.521c6.097-0.024,12.19-0.21,18.263-0.715c6.069-0.501,12.122-1.268,18.088-2.469
			c5.95-1.216,11.873-2.813,17.338-5.437c2.697-1.339,5.333-2.924,7.369-5.115c0.497-0.541,0.95-1.11,1.377-1.759
			c0.37-0.619,0.782-1.272,1.099-1.948c0.694-1.333,1.235-2.746,1.714-4.175c1.866-5.757,2.428-11.875,2.591-17.933
			c0.134-6.076-0.224-12.161-0.827-18.215c-0.609-6.056-1.478-12.087-2.508-18.089c-1.029-6.002-2.187-11.985-3.488-17.938
			c-1.299-5.953-2.722-11.88-4.248-17.78c-1.534-5.896-3.154-11.778-4.936-17.599l0.725,0.042
			c-1.777,3.767-3.792,7.377-5.893,10.947c-2.107,3.564-4.33,7.057-6.647,10.485c-4.635,6.857-9.646,13.456-14.975,19.784
			c-10.663,12.653-22.615,24.217-35.635,34.421c-13.014,10.209-27.111,19.029-41.97,26.28c-3.727,1.788-7.475,3.534-11.29,5.125
			c-1.892,0.832-3.826,1.563-5.737,2.349c-1.932,0.734-3.855,1.489-5.801,2.185c-3.889,1.398-7.801,2.732-11.759,3.923
			C260.439,134.076,256.449,135.153,252.449,136.188z"/>
	</g>
	<g>
		<path fill="#B53126" d="M403.738,41.374c0,0,0.282,0.825,0.811,2.372c0.53,1.546,1.323,3.808,2.205,6.731
			c0.464,1.455,0.958,3.071,1.437,4.848c0.505,1.77,1.039,3.687,1.523,5.758c1.054,4.122,2.004,8.836,2.732,14.027
			c0.719,5.188,1.176,10.879,0.913,16.898c-0.29,5.998-1.187,12.388-3.591,18.549c-2.295,6.183-6.141,12.045-11.225,16.766
			c-5.058,4.77-11.293,8.3-17.814,10.861c-6.542,2.571-13.416,4.136-20.211,5.224c-6.81,1.055-13.572,1.584-20.117,1.822
			c-6.547,0.248-12.879,0.171-18.874-0.015c-5.996-0.194-11.657-0.5-16.878-0.826c-10.443-0.655-19.13-1.375-25.224-1.674
			c-3.046-0.169-5.442-0.241-7.075-0.29c-1.634-0.028-2.506-0.043-2.506-0.043s0.872,0,2.506-0.001
			c1.634,0.02,4.033,0.05,7.082,0.166c6.1,0.214,14.807,0.712,25.248,1.281c10.44,0.542,22.642,1.032,35.687,0.536
			c6.519-0.258,13.247-0.808,20.005-1.877c6.743-1.1,13.548-2.679,19.992-5.232c6.441-2.505,12.576-5.957,17.544-10.613
			c4.995-4.609,8.776-10.328,11.051-16.394c2.364-6.045,3.331-12.333,3.674-18.273c0.319-5.959-0.078-11.62-0.743-16.791
			c-0.688-5.171-1.549-9.887-2.525-14.018c-0.448-2.076-0.948-3.999-1.421-5.774c-0.447-1.783-0.912-3.405-1.351-4.866
			c-0.829-2.935-1.583-5.212-2.086-6.767C404.006,42.204,403.738,41.374,403.738,41.374z"/>
	</g>
	<g>
		<path fill="#B53126" d="M394.023,57.282c0,0,0.226,0.618,0.648,1.778c0.442,1.152,1.009,2.871,1.71,5.068
			c0.639,2.214,1.424,4.907,2.023,8.068c0.621,3.152,1.141,6.763,1.206,10.733c0.055,3.96-0.245,8.3-1.412,12.718
			c-1.129,4.415-3.063,8.918-5.928,13.005c-2.813,4.123-6.498,7.809-10.636,10.989c-4.156,3.166-8.762,5.85-13.56,8.078
			c-4.802,2.229-9.784,4.037-14.757,5.548c-4.972,1.522-9.947,2.724-14.787,3.741c-9.688,2.017-18.856,3.147-26.712,3.974
			c-7.861,0.816-14.437,1.191-19.034,1.482c-4.6,0.254-7.229,0.399-7.229,0.399s2.624-0.206,7.217-0.567
			c4.59-0.376,11.144-0.974,18.984-1.874c7.837-0.907,16.957-2.223,26.595-4.264c4.814-1.033,9.76-2.25,14.692-3.785
			c4.935-1.522,9.866-3.339,14.608-5.562c4.757-2.184,9.312-4.815,13.417-7.913c4.086-3.113,7.716-6.715,10.489-10.742
			c2.807-4,4.771-8.37,5.937-12.697c1.204-4.327,1.557-8.605,1.554-12.525c-0.028-3.93-0.456-7.524-0.998-10.675
			c-0.524-3.159-1.245-5.863-1.832-8.087c-0.647-2.207-1.175-3.938-1.591-5.101C394.234,57.906,394.023,57.282,394.023,57.282z"/>
	</g>
	<circle fill="#F1B175" cx="54.568" cy="336.619" r="54.555"/>
	<circle fill="#F1B175" cx="623.444" cy="336.618" r="54.555"/>
	<path fill="#CB926A" d="M640.358,316.61c-1.081,0-2.196,0.417-3.188,1.408c-10.152,10.15-20.304,20.304-30.454,30.454
		c-3.365,3.365-0.104,8.156,3.561,8.156c1.081,0,2.196-0.416,3.188-1.407c10.153-10.151,20.304-20.304,30.454-30.454
		C647.284,321.402,644.023,316.61,640.358,316.61"/>
	<path opacity="0.9" fill="#CB926A" d="M610.277,316.611c-3.665,0-6.926,4.791-3.561,8.156c10.15,10.15,20.302,20.303,30.454,30.454
		c0.991,0.991,2.106,1.407,3.188,1.407c3.665,0,6.926-4.791,3.561-8.156c-10.15-10.15-20.301-20.304-30.454-30.454
		C612.474,317.027,611.358,316.611,610.277,316.611"/>
	<path opacity="0.4" fill="#876242" d="M91.873,376.854c-4.817,4.354-11.066,8.502-18.65,11.112
		c-7.565,2.584-16.375,3.654-25.43,2.397c-1.137-0.115-2.248-0.438-3.383-0.648c-1.117-0.269-2.308-0.401-3.38-0.787
		c-2.235-0.74-4.583-1.339-6.713-2.383c-4.427-1.748-8.6-4.426-12.511-7.437c-3.911-3.064-7.298-6.845-10.324-10.93
		c-2.938-4.168-5.285-8.788-7.069-13.661c-1.692-4.912-2.617-10.095-2.927-15.328c-0.209-5.23,0.462-10.551,1.625-15.585
		c1.454-5.223,3.341-10.016,6.031-14.565c2.769-4.451,6.053-8.565,9.883-12.077c3.892-3.428,8.158-6.375,12.729-8.63
		c4.608-2.147,9.388-3.854,14.287-4.683c4.881-0.78,9.8-1.145,14.556-0.567c2.397,0.104,4.702,0.69,7.006,1.103
		c1.109,0.164,2.248,0.627,3.361,0.922c1.104,0.359,2.254,0.611,3.3,1.052c8.523,3.2,15.782,8.35,21.19,14.225
		c5.421,5.911,8.938,12.537,11.094,18.663c1.816,5.024,2.548,9.766,2.837,13.876l0.116,0.039c-0.261-4.133-0.962-8.907-2.759-13.982
		c-2.12-6.171-5.637-12.815-10.971-18.88c-5.367-6.016-12.565-11.334-21.241-14.755c-1.068-0.467-2.192-0.731-3.298-1.11
		c-1.134-0.322-2.18-0.778-3.404-0.995c-2.336-0.459-4.676-1.092-7.118-1.242c-4.843-0.666-9.878-0.383-14.895,0.336
		c-5.036,0.767-9.972,2.433-14.752,4.567c-4.733,2.269-9.142,5.29-13.182,8.799c-3.977,3.596-7.397,7.821-10.287,12.407
		c-2.795,4.623-4.879,9.846-6.303,14.937c-1.229,5.406-1.846,10.782-1.607,16.229c0.354,5.41,1.346,10.753,3.125,15.811
		c1.879,5.01,4.306,9.771,7.392,14.018c3.182,4.157,6.726,7.976,10.785,11.051c4.073,3.028,8.341,5.67,12.945,7.405
		c2.243,1.04,4.56,1.587,6.815,2.293c1.164,0.392,2.331,0.496,3.482,0.753c1.16,0.196,2.293,0.504,3.449,0.601
		c9.218,1.126,18.107-0.112,25.686-2.839c7.58-2.787,13.844-6.944,18.648-11.359c1.831-1.647,3.432-3.352,4.841-5.052l-0.162-0.056
		C95.283,373.567,93.691,375.237,91.873,376.854z"/>
	<path opacity="0.4" fill="#876242" d="M586.013,376.855c4.817,4.355,11.066,8.503,18.649,11.113
		c7.565,2.584,16.376,3.652,25.431,2.396c1.137-0.114,2.248-0.437,3.383-0.646c1.117-0.271,2.309-0.401,3.381-0.789
		c2.234-0.738,4.582-1.339,6.713-2.383c4.428-1.748,8.6-4.426,12.511-7.435c3.911-3.064,7.299-6.845,10.324-10.932
		c2.938-4.167,5.285-8.788,7.069-13.659c1.692-4.912,2.617-10.095,2.927-15.328c0.209-5.23-0.463-10.553-1.626-15.587
		c-1.454-5.223-3.341-10.016-6.03-14.564c-2.769-4.451-6.054-8.565-9.883-12.077c-3.893-3.428-8.157-6.375-12.729-8.63
		c-4.608-2.147-9.389-3.854-14.288-4.683c-4.881-0.78-9.8-1.145-14.556-0.567c-2.397,0.104-4.702,0.69-7.006,1.103
		c-1.109,0.164-2.248,0.626-3.361,0.922c-1.104,0.359-2.254,0.611-3.3,1.052c-8.523,3.199-15.782,8.35-21.19,14.225
		c-5.422,5.911-8.938,12.537-11.095,18.663c-1.815,5.023-2.548,9.767-2.837,13.875l-0.116,0.041
		c0.262-4.133,0.963-8.907,2.76-13.983c2.119-6.171,5.638-12.815,10.971-18.88c5.367-6.016,12.565-11.335,21.241-14.755
		c1.068-0.467,2.192-0.731,3.298-1.11c1.134-0.322,2.18-0.778,3.404-0.995c2.336-0.459,4.676-1.092,7.117-1.242
		c4.844-0.667,9.879-0.383,14.896,0.336c5.035,0.767,9.972,2.433,14.752,4.567c4.733,2.269,9.143,5.29,13.182,8.799
		c3.977,3.596,7.397,7.821,10.287,12.407c2.795,4.622,4.879,9.846,6.303,14.938c1.229,5.404,1.846,10.78,1.607,16.228
		c-0.354,5.41-1.346,10.755-3.124,15.812c-1.88,5.008-4.307,9.771-7.393,14.018c-3.182,4.155-6.726,7.976-10.784,11.049
		c-4.073,3.028-8.341,5.672-12.945,7.405c-2.243,1.042-4.56,1.588-6.815,2.293c-1.164,0.392-2.33,0.496-3.482,0.755
		c-1.16,0.196-2.293,0.502-3.449,0.599c-9.219,1.126-18.107-0.11-25.686-2.837c-7.58-2.789-13.844-6.946-18.647-11.361
		c-1.831-1.647-3.433-3.352-4.842-5.052l0.162-0.056C582.603,373.567,584.195,375.239,586.013,376.855z"/>
	<path fill="#CB926A" d="M65.791,316.61c-1.082,0-2.196,0.417-3.188,1.408c-10.152,10.15-20.303,20.304-30.454,30.454
		c-3.365,3.365-0.104,8.156,3.561,8.156c1.082,0,2.196-0.416,3.188-1.407C49.05,345.07,59.2,334.918,69.351,324.768
		C72.716,321.402,69.456,316.61,65.791,316.61"/>
	<path opacity="0.9" fill="#CB926A" d="M35.709,316.611c-3.665,0-6.926,4.791-3.561,8.156c10.151,10.15,20.302,20.303,30.454,30.454
		c0.992,0.991,2.106,1.407,3.188,1.407c3.665,0,6.926-4.791,3.561-8.156c-10.151-10.15-20.301-20.304-30.454-30.454
		C37.905,317.027,36.791,316.611,35.709,316.611"/>
	<line fill="none" stroke="#3F2C20" stroke-width="2" stroke-miterlimit="10" x1="221.363" y1="310.7" x2="266.671" y2="310.7"/>
	<line fill="none" stroke="#3F2C20" stroke-width="2" stroke-miterlimit="10" x1="404.625" y1="310.7" x2="449.933" y2="310.7"/>
</g>
</svg>
